<?xml version="1.0" encoding="UTF-8" standalone="no"?>
<svg viewBox="54.7087 267.024 885.543 436.535"
 xmlns="http://www.w3.org/2000/svg" xmlns:xlink="http://www.w3.org/1999/xlink"  version="1.2" baseProfile="tiny">
<title>Qt SVG Document</title>
<desc>Generated with Qt</desc>
<defs>
</defs>
<g fill="none" stroke="black" stroke-width="1" fill-rule="evenodd" stroke-linecap="square" stroke-linejoin="bevel" >

<g fill="none" stroke="#000000" stroke-opacity="1" stroke-width="1" stroke-linecap="square" stroke-linejoin="bevel" transform="matrix(2.83465,0,0,2.83465,0,0)"
font-family=".AppleSystemUIFont" font-size="13" font-weight="400" font-style="normal" 
>
</g>

<g fill="none" stroke="#868686" stroke-opacity="1" stroke-width="1" stroke-linecap="square" stroke-linejoin="bevel" transform="matrix(2.83465,0,0,2.83465,420.945,683.717)"
font-family=".AppleSystemUIFont" font-size="13" font-weight="400" font-style="normal" 
>
<path vector-effect="non-scaling-stroke" fill-rule="evenodd" d="M5,-67.5 L5,-72.3 C5,-72.5761 5.22386,-72.8 5.5,-72.8 L7,-72.8 C7.27614,-72.8 7.5,-73.0239 7.5,-73.3 L7.5,-75.3 C7.5,-75.5761 7.27614,-75.8 7,-75.8 L5.5,-75.8 L5.5,-81 L7,-81 C7.27614,-81 7.5,-81.2239 7.5,-81.5 L7.5,-83.5 C7.5,-83.7761 7.27614,-84 7,-84 L5.5,-84 C5.22386,-84 5,-84.2239 5,-84.5 L5,-129.5 C5,-129.776 5.22386,-130 5.5,-130 L40.5,-130 C40.7761,-130 41,-129.776 41,-129.5 L41,-84.5 C41,-84.2239 40.7761,-84 40.5,-84 L39,-84 C38.7239,-84 38.5,-83.7761 38.5,-83.5 L38.5,-81.5 C38.5,-81.2239 38.7239,-81 39,-81 L40.5,-81 L40.5,-75.8 L39,-75.8 C38.7239,-75.8 38.5,-75.5761 38.5,-75.3 L38.5,-73.3 C38.5,-73.0239 38.7239,-72.8 39,-72.8 L40.5,-72.8 C40.7761,-72.8 41,-72.5761 41,-72.3 L41,-67.5 C41,-67.2239 40.7761,-67 40.5,-67 L5.5,-67 C5.22386,-67 5,-67.2239 5,-67.5 "/>
</g>

<g fill="none" stroke="#000000" stroke-opacity="1" stroke-width="1" stroke-linecap="square" stroke-linejoin="bevel" transform="matrix(2.83465,0,0,2.83465,0,0)"
font-family=".AppleSystemUIFont" font-size="13" font-weight="400" font-style="normal" 
>
</g>

<g fill="none" stroke="#868686" stroke-opacity="1" stroke-width="1" stroke-linecap="square" stroke-linejoin="bevel" transform="matrix(2.83465,0,0,2.83465,420.945,683.717)"
font-family=".AppleSystemUIFont" font-size="13" font-weight="400" font-style="normal" 
>
<path vector-effect="non-scaling-stroke" fill-rule="evenodd" d="M123,-129.5 L123,-84.5 C123,-84.2239 122.776,-84 122.5,-84 L121,-84 C120.724,-84 120.5,-83.7761 120.5,-83.5 L120.5,-81.5 C120.5,-81.2239 120.724,-81 121,-81 L122.5,-81 L122.5,-75.8 L121,-75.8 C120.724,-75.8 120.5,-75.5761 120.5,-75.3 L120.5,-73.3 C120.5,-73.0239 120.724,-72.8 121,-72.8 L122.5,-72.8 C122.776,-72.8 123,-72.5761 123,-72.3 L123,-67.5 C123,-67.2239 122.776,-67 122.5,-67 L87.5,-67 C87.2239,-67 87,-67.2239 87,-67.5 L87,-72.3 C87,-72.5761 87.2239,-72.8 87.5,-72.8 L89,-72.8 C89.2761,-72.8 89.5,-73.0239 89.5,-73.3 L89.5,-75.3 C89.5,-75.5761 89.2761,-75.8 89,-75.8 L87.5,-75.8 L87.5,-81 L89,-81 C89.2761,-81 89.5,-81.2239 89.5,-81.5 L89.5,-83.5 C89.5,-83.7761 89.2761,-84 89,-84 L87.5,-84 C87.2239,-84 87,-84.2239 87,-84.5 L87,-129.5 C87,-129.776 87.2239,-130 87.5,-130 L122.5,-130 C122.776,-130 123,-129.776 123,-129.5 "/>
</g>

<g fill="none" stroke="#000000" stroke-opacity="1" stroke-width="1" stroke-linecap="square" stroke-linejoin="bevel" transform="matrix(2.83465,0,0,2.83465,0,0)"
font-family=".AppleSystemUIFont" font-size="13" font-weight="400" font-style="normal" 
>
</g>

<g fill="none" stroke="#868686" stroke-opacity="1" stroke-width="1" stroke-linecap="square" stroke-linejoin="bevel" transform="matrix(2.83465,0,0,2.83465,420.945,683.717)"
font-family=".AppleSystemUIFont" font-size="13" font-weight="400" font-style="normal" 
>
<path vector-effect="non-scaling-stroke" fill-rule="evenodd" d="M82,-129.5 L82,-84.5 C82,-84.2239 81.7761,-84 81.5,-84 L80,-84 C79.7239,-84 79.5,-83.7761 79.5,-83.5 L79.5,-81.5 C79.5,-81.2239 79.7239,-81 80,-81 L81.5,-81 L81.5,-75.8 L80,-75.8 C79.7239,-75.8 79.5,-75.5761 79.5,-75.3 L79.5,-73.3 C79.5,-73.0239 79.7239,-72.8 80,-72.8 L81.5,-72.8 C81.7761,-72.8 82,-72.5761 82,-72.3 L82,-67.5 C82,-67.2239 81.7761,-67 81.5,-67 L46.5,-67 C46.2239,-67 46,-67.2239 46,-67.5 L46,-72.3 C46,-72.5761 46.2239,-72.8 46.5,-72.8 L48,-72.8 C48.2761,-72.8 48.5,-73.0239 48.5,-73.3 L48.5,-75.3 C48.5,-75.5761 48.2761,-75.8 48,-75.8 L46.5,-75.8 L46.5,-81 L48,-81 C48.2761,-81 48.5,-81.2239 48.5,-81.5 L48.5,-83.5 C48.5,-83.7761 48.2761,-84 48,-84 L46.5,-84 C46.2239,-84 46,-84.2239 46,-84.5 L46,-129.5 C46,-129.776 46.2239,-130 46.5,-130 L81.5,-130 C81.7761,-130 82,-129.776 82,-129.5 "/>
</g>

<g fill="none" stroke="#000000" stroke-opacity="1" stroke-width="1" stroke-linecap="square" stroke-linejoin="bevel" transform="matrix(2.83465,0,0,2.83465,0,0)"
font-family=".AppleSystemUIFont" font-size="13" font-weight="400" font-style="normal" 
>
</g>

<g fill="none" stroke="#868686" stroke-opacity="1" stroke-width="1" stroke-linecap="square" stroke-linejoin="bevel" transform="matrix(2.83465,0,0,2.83465,420.945,683.717)"
font-family=".AppleSystemUIFont" font-size="13" font-weight="400" font-style="normal" 
>
<path vector-effect="non-scaling-stroke" fill-rule="evenodd" d="M128,-67.5 L128,-72.3 C128,-72.5761 128.224,-72.8 128.5,-72.8 L130,-72.8 C130.276,-72.8 130.5,-73.0239 130.5,-73.3 L130.5,-75.3 C130.5,-75.5761 130.276,-75.8 130,-75.8 L128.5,-75.8 L128.5,-81 L130,-81 C130.276,-81 130.5,-81.2239 130.5,-81.5 L130.5,-83.5 C130.5,-83.7761 130.276,-84 130,-84 L128.5,-84 C128.224,-84 128,-84.2239 128,-84.5 L128,-129.5 C128,-129.776 128.224,-130 128.5,-130 L163.5,-130 C163.776,-130 164,-129.776 164,-129.5 L164,-84.5 C164,-84.2239 163.776,-84 163.5,-84 L162,-84 C161.724,-84 161.5,-83.7761 161.5,-83.5 L161.5,-81.5 C161.5,-81.2239 161.724,-81 162,-81 L163.5,-81 L163.5,-75.8 L162,-75.8 C161.724,-75.8 161.5,-75.5761 161.5,-75.3 L161.5,-73.3 C161.5,-73.0239 161.724,-72.8 162,-72.8 L163.5,-72.8 C163.776,-72.8 164,-72.5761 164,-72.3 L164,-67.5 C164,-67.2239 163.776,-67 163.5,-67 L128.5,-67 C128.224,-67 128,-67.2239 128,-67.5 "/>
</g>

<g fill="none" stroke="#000000" stroke-opacity="1" stroke-width="1" stroke-linecap="square" stroke-linejoin="bevel" transform="matrix(2.83465,0,0,2.83465,0,0)"
font-family=".AppleSystemUIFont" font-size="13" font-weight="400" font-style="normal" 
>
</g>

<g fill="none" stroke="#868686" stroke-opacity="1" stroke-width="1" stroke-linecap="square" stroke-linejoin="bevel" transform="matrix(2.83465,0,0,2.83465,420.945,683.717)"
font-family=".AppleSystemUIFont" font-size="13" font-weight="400" font-style="normal" 
>
<path vector-effect="non-scaling-stroke" fill-rule="evenodd" d="M-110,-7.5 C-110,-8.88071 -108.881,-10 -107.5,-10 C-106.119,-10 -105,-8.88071 -105,-7.5 C-105,-6.11929 -106.119,-5 -107.5,-5 C-108.881,-5 -110,-6.11929 -110,-7.5 "/>
</g>

<g fill="none" stroke="#000000" stroke-opacity="1" stroke-width="1" stroke-linecap="square" stroke-linejoin="bevel" transform="matrix(2.83465,0,0,2.83465,0,0)"
font-family=".AppleSystemUIFont" font-size="13" font-weight="400" font-style="normal" 
>
</g>

<g fill="none" stroke="#868686" stroke-opacity="1" stroke-width="1" stroke-linecap="square" stroke-linejoin="bevel" transform="matrix(2.83465,0,0,2.83465,420.945,683.717)"
font-family=".AppleSystemUIFont" font-size="13" font-weight="400" font-style="normal" 
>
<path vector-effect="non-scaling-stroke" fill-rule="evenodd" d="M2.5,-135 C2.5,-136.381 3.61929,-137.5 5,-137.5 C6.38071,-137.5 7.5,-136.381 7.5,-135 C7.5,-133.619 6.38071,-132.5 5,-132.5 C3.61929,-132.5 2.5,-133.619 2.5,-135 "/>
</g>

<g fill="none" stroke="#000000" stroke-opacity="1" stroke-width="1" stroke-linecap="square" stroke-linejoin="bevel" transform="matrix(2.83465,0,0,2.83465,0,0)"
font-family=".AppleSystemUIFont" font-size="13" font-weight="400" font-style="normal" 
>
</g>

<g fill="none" stroke="#868686" stroke-opacity="1" stroke-width="1" stroke-linecap="square" stroke-linejoin="bevel" transform="matrix(2.83465,0,0,2.83465,420.945,683.717)"
font-family=".AppleSystemUIFont" font-size="13" font-weight="400" font-style="normal" 
>
<path vector-effect="non-scaling-stroke" fill-rule="evenodd" d="M-32.5,-7.5 C-32.5,-8.88071 -31.3807,-10 -30,-10 C-28.6193,-10 -27.5,-8.88071 -27.5,-7.5 C-27.5,-6.11929 -28.6193,-5 -30,-5 C-31.3807,-5 -32.5,-6.11929 -32.5,-7.5 "/>
</g>

<g fill="none" stroke="#000000" stroke-opacity="1" stroke-width="1" stroke-linecap="square" stroke-linejoin="bevel" transform="matrix(2.83465,0,0,2.83465,0,0)"
font-family=".AppleSystemUIFont" font-size="13" font-weight="400" font-style="normal" 
>
</g>

<g fill="none" stroke="#868686" stroke-opacity="1" stroke-width="1" stroke-linecap="square" stroke-linejoin="bevel" transform="matrix(2.83465,0,0,2.83465,420.945,683.717)"
font-family=".AppleSystemUIFont" font-size="13" font-weight="400" font-style="normal" 
>
<path vector-effect="non-scaling-stroke" fill-rule="evenodd" d="M161.5,-135 C161.5,-136.381 162.619,-137.5 164,-137.5 C165.381,-137.5 166.5,-136.381 166.5,-135 C166.5,-133.619 165.381,-132.5 164,-132.5 C162.619,-132.5 161.5,-133.619 161.5,-135 "/>
</g>

<g fill="none" stroke="#000000" stroke-opacity="1" stroke-width="1" stroke-linecap="square" stroke-linejoin="bevel" transform="matrix(2.83465,0,0,2.83465,0,0)"
font-family=".AppleSystemUIFont" font-size="13" font-weight="400" font-style="normal" 
>
</g>

<g fill="none" stroke="#868686" stroke-opacity="1" stroke-width="1" stroke-linecap="square" stroke-linejoin="bevel" transform="matrix(2.83465,0,0,2.83465,420.945,683.717)"
font-family=".AppleSystemUIFont" font-size="13" font-weight="400" font-style="normal" 
>
<path vector-effect="non-scaling-stroke" fill-rule="evenodd" d="M159,-7.5 C159,-8.88071 160.119,-10 161.5,-10 C162.881,-10 164,-8.88071 164,-7.5 C164,-6.11929 162.881,-5 161.5,-5 C160.119,-5 159,-6.11929 159,-7.5 "/>
</g>

<g fill="none" stroke="#000000" stroke-opacity="1" stroke-width="1" stroke-linecap="square" stroke-linejoin="bevel" transform="matrix(2.83465,0,0,2.83465,0,0)"
font-family=".AppleSystemUIFont" font-size="13" font-weight="400" font-style="normal" 
>
</g>

<g fill="none" stroke="#868686" stroke-opacity="1" stroke-width="1" stroke-linecap="square" stroke-linejoin="bevel" transform="matrix(2.83465,0,0,2.83465,420.945,683.717)"
font-family=".AppleSystemUIFont" font-size="13" font-weight="400" font-style="normal" 
>
<path vector-effect="non-scaling-stroke" fill-rule="evenodd" d="M169,-139.5 L169,-0.5 C169,-0.223858 168.776,0 168.5,0 L-114.5,0 C-114.776,0 -115,-0.223858 -115,-0.5 L-115,-139.5 C-115,-139.776 -114.776,-140 -114.5,-140 L168.5,-140 C168.776,-140 169,-139.776 169,-139.5 "/>
</g>

<g fill="none" stroke="#000000" stroke-opacity="1" stroke-width="1" stroke-linecap="square" stroke-linejoin="bevel" transform="matrix(2.83465,0,0,2.83465,0,0)"
font-family=".AppleSystemUIFont" font-size="13" font-weight="400" font-style="normal" 
>
</g>

<g fill="none" stroke="#868686" stroke-opacity="1" stroke-width="1" stroke-linecap="square" stroke-linejoin="bevel" transform="matrix(2.83465,0,0,2.83465,420.945,683.717)"
font-family=".AppleSystemUIFont" font-size="13" font-weight="400" font-style="normal" 
>
<path vector-effect="non-scaling-stroke" fill-rule="evenodd" d="M128,-61.5 C128,-61.7761 128.224,-62 128.5,-62 L163.5,-62 C163.776,-62 164,-61.7761 164,-61.5 L164,-15.5 C164,-15.2239 163.776,-15 163.5,-15 L135,-15 L133,-15 L128.5,-15 C128.224,-15 128,-15.2239 128,-15.5 L128,-61.5"/>
</g>

<g fill="none" stroke="#000000" stroke-opacity="1" stroke-width="1" stroke-linecap="square" stroke-linejoin="bevel" transform="matrix(2.83465,0,0,2.83465,0,0)"
font-family=".AppleSystemUIFont" font-size="13" font-weight="400" font-style="normal" 
>
</g>

<g fill="none" stroke="#868686" stroke-opacity="1" stroke-width="1" stroke-linecap="square" stroke-linejoin="bevel" transform="matrix(2.83465,0,0,2.83465,420.945,683.717)"
font-family=".AppleSystemUIFont" font-size="13" font-weight="400" font-style="normal" 
>
<path vector-effect="non-scaling-stroke" fill-rule="evenodd" d="M87,-61.5 C87,-61.7761 87.2239,-62 87.5,-62 L122.5,-62 C122.776,-62 123,-61.7761 123,-61.5 L123,-15.5 C123,-15.2239 122.776,-15 122.5,-15 L94,-15 L92,-15 L87.5,-15 C87.2239,-15 87,-15.2239 87,-15.5 L87,-61.5"/>
</g>

<g fill="none" stroke="#000000" stroke-opacity="1" stroke-width="1" stroke-linecap="square" stroke-linejoin="bevel" transform="matrix(2.83465,0,0,2.83465,0,0)"
font-family=".AppleSystemUIFont" font-size="13" font-weight="400" font-style="normal" 
>
</g>

<g fill="none" stroke="#868686" stroke-opacity="1" stroke-width="1" stroke-linecap="square" stroke-linejoin="bevel" transform="matrix(2.83465,0,0,2.83465,420.945,683.717)"
font-family=".AppleSystemUIFont" font-size="13" font-weight="400" font-style="normal" 
>
<path vector-effect="non-scaling-stroke" fill-rule="evenodd" d="M46,-61.5 C46,-61.7761 46.2239,-62 46.5,-62 L81.5,-62 C81.7761,-62 82,-61.7761 82,-61.5 L82,-15.5 C82,-15.2239 81.7761,-15 81.5,-15 L53,-15 L51,-15 L46.5,-15 C46.2239,-15 46,-15.2239 46,-15.5 L46,-61.5"/>
</g>

<g fill="none" stroke="#000000" stroke-opacity="1" stroke-width="1" stroke-linecap="square" stroke-linejoin="bevel" transform="matrix(2.83465,0,0,2.83465,0,0)"
font-family=".AppleSystemUIFont" font-size="13" font-weight="400" font-style="normal" 
>
</g>

<g fill="none" stroke="#868686" stroke-opacity="1" stroke-width="1" stroke-linecap="square" stroke-linejoin="bevel" transform="matrix(2.83465,0,0,2.83465,420.945,683.717)"
font-family=".AppleSystemUIFont" font-size="13" font-weight="400" font-style="normal" 
>
<path vector-effect="non-scaling-stroke" fill-rule="evenodd" d="M5,-61.5 C5,-61.7761 5.22386,-62 5.5,-62 L40.5,-62 C40.7761,-62 41,-61.7761 41,-61.5 L41,-15.5 C41,-15.2239 40.7761,-15 40.5,-15 L12,-15 L10,-15 L5.5,-15 C5.22386,-15 5,-15.2239 5,-15.5 L5,-61.5"/>
</g>

<g fill="none" stroke="#000000" stroke-opacity="1" stroke-width="1" stroke-linecap="square" stroke-linejoin="bevel" transform="matrix(2.83465,0,0,2.83465,0,0)"
font-family=".AppleSystemUIFont" font-size="13" font-weight="400" font-style="normal" 
>
</g>

<g fill="none" stroke="#868686" stroke-opacity="1" stroke-width="1" stroke-linecap="square" stroke-linejoin="bevel" transform="matrix(2.83465,0,0,2.83465,420.945,683.717)"
font-family=".AppleSystemUIFont" font-size="13" font-weight="400" font-style="normal" 
>
<path vector-effect="non-scaling-stroke" fill-rule="evenodd" d="M-110.5,-135 L0,-135 L0,-15 L-15,-15 L-25,-15 L-110.5,-15 L-110.5,-135"/>
</g>

<g fill="none" stroke="#000000" stroke-opacity="1" stroke-width="1" stroke-linecap="square" stroke-linejoin="bevel" transform="matrix(2.83465,0,0,2.83465,0,0)"
font-family=".AppleSystemUIFont" font-size="13" font-weight="400" font-style="normal" 
>
</g>
</g>
</svg>
